<svg width="350" height="560" viewBox="0 0 350 560" fill="none" xmlns="http://www.w3.org/2000/svg">
  <rect width="350" height="560" rx="28" fill="#C79B06"/>
  <rect width="350" height="560" rx="28" fill="url(#goldFoil)"/>
  <text x="20" y="120" fill="#17823F" fill-opacity="0.88" font-size="96" font-family="Arial Black, Arial, sans-serif">26</text>
  <text x="20" y="242" fill="#17823F" fill-opacity="0.88" font-size="96" font-family="Arial Black, Arial, sans-serif">26</text>
  <text x="280" y="96" fill="white" font-size="18" font-family="Arial Black, Arial, sans-serif">FIFA</text>
  <text x="272" y="128" fill="white" font-size="38" font-family="Arial Black, Arial, sans-serif">26</text>
  <g transform="translate(286 42)">
    <path d="M14 0H28V8C28 20 22 30 14 34C6 30 0 20 0 8V0H14Z" fill="#F3D36C"/>
    <path d="M10 35H18V45H10V35Z" fill="#F3D36C"/>
    <path d="M6 45H22V49H6V45Z" fill="#F3D36C"/>
  </g>
  <path d="M92 106C88 78 110 60 134 68C150 50 178 48 196 66C222 54 252 74 248 104C262 140 260 188 246 226C232 266 218 308 202 354H146C128 306 116 262 102 224C90 190 86 150 92 106Z" fill="#4E2818"/>
  <rect x="135" y="128" width="80" height="98" rx="14" fill="url(#faceBlur)"/>
  <rect x="76" y="94" width="190" height="292" rx="20" fill="url(#panelLight)" stroke="rgba(255,255,255,0.35)"/>
  <path d="M86 224C104 194 134 178 175 178C218 178 246 194 264 224V356H86V224Z" fill="#F0C718"/>
  <path d="M118 192C134 206 216 206 232 192" stroke="#0FA04A" stroke-width="9" stroke-linecap="round"/>
  <path d="M104 232C116 220 130 215 148 214" stroke="#0FA04A" stroke-width="6" stroke-linecap="round"/>
  <path d="M246 232C234 220 220 215 202 214" stroke="#0FA04A" stroke-width="6" stroke-linecap="round"/>
  <circle cx="276" cy="255" r="34" fill="#059A44" stroke="#FFF7C6" stroke-width="5"/>
  <polygon points="276,233 297,255 276,277 255,255" fill="#FFD83D"/>
  <circle cx="276" cy="255" r="11" fill="#0F55A3"/>
  <text x="307" y="362" transform="rotate(90 307 362)" fill="white" font-size="36" font-family="Arial Black, Arial, sans-serif">BRASIL</text>
  <rect x="36" y="457" width="220" height="52" rx="26" fill="#2E955A"/>
  <text x="146" y="487" text-anchor="middle" fill="white" font-size="24" font-family="Arial Black, Arial, sans-serif">LARA LEMOS</text>
  <text x="146" y="507" text-anchor="middle" fill="#E8F8ED" font-size="12" font-family="Arial, sans-serif">18/02/2017 | 1,15m | 22kg</text>
  <rect x="48" y="516" width="160" height="24" rx="12" fill="#2E955A"/>
  <text x="128" y="533" text-anchor="middle" fill="white" font-size="12" font-family="Arial Black, Arial, sans-serif">BRASIL</text>
  <rect x="244" y="516" width="70" height="24" rx="4" fill="#F2D34B"/>
  <text x="279" y="533" text-anchor="middle" fill="#B22222" font-size="14" font-family="Georgia, serif" font-weight="700">PANINI</text>
  <defs>
    <linearGradient id="goldFoil" x1="0" y1="0" x2="350" y2="560" gradientUnits="userSpaceOnUse">
      <stop stop-color="#F7E06D"/>
      <stop offset="0.32" stop-color="#D0A918"/>
      <stop offset="0.64" stop-color="#E7C84C"/>
      <stop offset="1" stop-color="#9D7707"/>
    </linearGradient>
    <radialGradient id="panelLight" cx="0" cy="0" r="1" gradientUnits="userSpaceOnUse" gradientTransform="translate(175 100) rotate(90) scale(340 220)">
      <stop stop-color="#FFFFFF" stop-opacity="0.22"/>
      <stop offset="1" stop-color="#FFFFFF" stop-opacity="0.06"/>
    </radialGradient>
    <linearGradient id="faceBlur" x1="135" y1="128" x2="215" y2="226" gradientUnits="userSpaceOnUse">
      <stop stop-color="#A56542"/>
      <stop offset="1" stop-color="#D39B74"/>
    </linearGradient>
  </defs>
</svg>
