<svg width="350" height="560" viewBox="0 0 350 560" fill="none" xmlns="http://www.w3.org/2000/svg">
  <rect width="350" height="560" rx="28" fill="url(#skyBg)"/>
  <text x="16" y="116" fill="#2C9A40" fill-opacity="0.70" font-size="96" font-family="Arial Black, Arial, sans-serif">26</text>
  <text x="16" y="238" fill="#2C9A40" fill-opacity="0.70" font-size="96" font-family="Arial Black, Arial, sans-serif">26</text>
  <g opacity="0.95">
    <text x="286" y="96" fill="white" font-size="18" font-family="Arial Black, Arial, sans-serif">FIFA</text>
    <text x="272" y="128" fill="white" font-size="38" font-family="Arial Black, Arial, sans-serif">26</text>
    <path d="M302 34C312 44 312 58 302 68C292 58 292 44 302 34Z" fill="#C8F3FF"/>
  </g>
  <path d="M126 92C142 72 174 66 198 78C212 84 222 96 227 112C231 126 229 140 220 150H136C126 142 122 128 124 112C124 105 124 99 126 92Z" fill="#231B16"/>
  <rect x="135" y="108" width="78" height="118" rx="14" fill="url(#faceBlur)"/>
  <path d="M98 224C114 200 140 188 174 188C208 188 236 198 252 224V354H98V224Z" fill="#F0C718"/>
  <path d="M132 194C146 204 202 204 216 194" stroke="#0FA04A" stroke-width="9" stroke-linecap="round"/>
  <circle cx="175" cy="248" r="34" fill="url(#crestGlow)"/>
  <path d="M175 223L161 233V263C167 269 183 269 189 263V233L175 223Z" fill="#2A87CE" stroke="#F8E86B" stroke-width="3"/>
  <path d="M161 233H189" stroke="#F8E86B" stroke-width="3"/>
  <path d="M100 250C110 242 122 236 138 232" stroke="#2A87CE" stroke-width="7" stroke-linecap="round"/>
  <circle cx="276" cy="255" r="34" fill="#059A44" stroke="#E8FFDF" stroke-width="5"/>
  <polygon points="276,233 297,255 276,277 255,255" fill="#FFD83D"/>
  <circle cx="276" cy="255" r="11" fill="#0F55A3"/>
  <text x="307" y="364" transform="rotate(90 307 364)" fill="white" fill-opacity="0.88" font-size="34" font-family="Arial Black, Arial, sans-serif">BRA</text>
  <rect x="34" y="457" width="232" height="52" rx="26" fill="#2B7C8F"/>
  <text x="150" y="487" text-anchor="middle" fill="white" font-size="24" font-family="Arial Black, Arial, sans-serif">NEYMAR</text>
  <text x="150" y="507" text-anchor="middle" fill="#E1F9FF" font-size="12" font-family="Arial, sans-serif">15-07-2015 | 1,50m | 50kg</text>
  <rect x="48" y="516" width="194" height="24" rx="12" fill="#2B7C8F"/>
  <text x="145" y="533" text-anchor="middle" fill="white" font-size="12" font-family="Arial Black, Arial, sans-serif">SÃO PAULO FC</text>
  <rect x="250" y="516" width="70" height="24" rx="4" fill="#F2D34B"/>
  <text x="285" y="533" text-anchor="middle" fill="#B22222" font-size="14" font-family="Georgia, serif" font-weight="700">PANINI</text>
  <rect x="-40" y="90" width="430" height="20" transform="rotate(-38 -40 90)" fill="url(#rainbow1)" opacity="0.88"/>
  <rect x="-18" y="112" width="430" height="12" transform="rotate(-38 -18 112)" fill="url(#rainbow2)" opacity="0.9"/>
  <defs>
    <linearGradient id="skyBg" x1="0" y1="0" x2="350" y2="560" gradientUnits="userSpaceOnUse">
      <stop stop-color="#84DEF0"/>
      <stop offset="1" stop-color="#40C1D0"/>
    </linearGradient>
    <linearGradient id="faceBlur" x1="135" y1="108" x2="213" y2="226" gradientUnits="userSpaceOnUse">
      <stop stop-color="#956040"/>
      <stop offset="1" stop-color="#D19E78"/>
    </linearGradient>
    <radialGradient id="crestGlow" cx="0" cy="0" r="1" gradientUnits="userSpaceOnUse" gradientTransform="translate(175 248) rotate(90) scale(34)">
      <stop stop-color="#EAF7FF"/>
      <stop offset="1" stop-color="#A7D6EB"/>
    </radialGradient>
    <linearGradient id="rainbow1" x1="-40" y1="100" x2="390" y2="100" gradientUnits="userSpaceOnUse">
      <stop stop-color="#00FF7A"/>
      <stop offset="0.20" stop-color="#F8FF76"/>
      <stop offset="0.42" stop-color="#00D9FF"/>
      <stop offset="0.66" stop-color="#005DFF"/>
      <stop offset="0.86" stop-color="#8C00FF"/>
      <stop offset="1" stop-color="#C8FFFF" stop-opacity="0"/>
    </linearGradient>
    <linearGradient id="rainbow2" x1="-18" y1="118" x2="412" y2="118" gradientUnits="userSpaceOnUse">
      <stop stop-color="#FFFFFF" stop-opacity="0"/>
      <stop offset="0.18" stop-color="#C7FFB2"/>
      <stop offset="0.52" stop-color="#7DCCFF"/>
      <stop offset="0.78" stop-color="#00B3FF"/>
      <stop offset="1" stop-color="#FFFFFF" stop-opacity="0"/>
    </linearGradient>
  </defs>
</svg>
